<svg width="12" height="12" viewBox="0 0 12 12" fill="none" xmlns="http://www.w3.org/2000/svg">
<path d="M12 6C12 9.31371 9.31371 12 6 12C2.68629 12 0 9.31371 0 6C0 2.68629 2.68629 0 6 0C9.31371 0 12 2.68629 12 6Z" fill="#4E4E4E"/>
<path fill-rule="evenodd" clip-rule="evenodd" d="M6 11C8.76142 11 11 8.76142 11 6C11 3.23858 8.76142 1 6 1C3.23858 1 1 3.23858 1 6C1 8.76142 3.23858 11 6 11ZM6 12C9.31371 12 12 9.31371 12 6C12 2.68629 9.31371 0 6 0C2.68629 0 0 2.68629 0 6C0 9.31371 2.68629 12 6 12Z" fill="#4E4E4E"/>
<path fill-rule="evenodd" clip-rule="evenodd" d="M2.64645 5.64643C2.84171 5.45117 3.15829 5.45117 3.35355 5.64643L5.35357 7.64645C5.54883 7.84171 5.54883 8.15829 5.35357 8.35355C5.15831 8.54881 4.84172 8.54881 4.64646 8.35355L2.64645 6.35354C2.45118 6.15828 2.45118 5.84169 2.64645 5.64643Z" fill="white"/>
<path fill-rule="evenodd" clip-rule="evenodd" d="M4.64646 8.35355C4.4512 8.15829 4.4512 7.84171 4.64646 7.64645L8.64646 3.64645C8.84172 3.45118 9.15831 3.45118 9.35357 3.64645C9.54883 3.84171 9.54883 4.15829 9.35357 4.35355L5.35357 8.35355C5.15831 8.54882 4.84172 8.54882 4.64646 8.35355Z" fill="white"/>
</svg>
